<?xml version="1.0" encoding="utf-8"?>
<!-- Generator: Adobe Illustrator 28.0.0, SVG Export Plug-In . SVG Version: 6.00 Build 0)  -->
<svg version="1.1" id="Calque_1" xmlns="http://www.w3.org/2000/svg" xmlns:xlink="http://www.w3.org/1999/xlink" x="0px" y="0px"
	 viewBox="0 0 417.9 98.27" style="enable-background:new 0 0 417.9 98.27;" xml:space="preserve">
<style type="text/css">
	.st0{fill:#FFFFFF;}
</style>
<g>
	<path class="st0" d="M248.23,73.74h-4.69V51.96c0-8.36-1.88-14.68-5.65-18.95c-3.77-4.27-10.22-6.41-19.37-6.41
		c-9.14,0-16.33,1.15-21.57,3.45c-1.56,0.83-2.34,2.69-2.34,5.58c0,2.89,1.29,6.64,3.86,11.23c6.43-1.47,11.39-2.21,14.89-2.21
		c2.85,0,4.66,0.34,5.44,1.03c0.78,0.69,1.17,2.23,1.17,4.62v1.38h-7.58c-17.92,0-26.88,7.49-26.88,22.47
		c0,6.53,2.3,12.18,6.89,16.95c4.59,4.78,10.24,7.17,16.95,7.17c8.91,0,15.48-2.66,19.71-7.99c0.73,1.56,1.79,2.89,3.17,4
		c3.03,2.66,7.03,4,11.99,4c2.76,0,4.94-1.56,6.55-4.69c1.61-3.12,2.41-6.29,2.41-9.51c0-3.21-0.44-5.74-1.31-7.58
		C251.01,74.66,249.79,73.74,248.23,73.74z M219.98,76.36c-1.38,1.38-2.92,2.07-4.62,2.07c-1.7,0-3.1-0.53-4.2-1.59
		c-1.1-1.06-1.65-2.6-1.65-4.62c0-4.32,2.21-6.48,6.62-6.48h3.86V76.36z"/>
	<path class="st0" d="M49.21,70.57H27.98V3.03c0-1.93-4.66-2.89-13.99-2.89C4.66,0.14,0,1.1,0,3.03v85.73c0,2.12,0.6,4,1.79,5.65
		c1.19,1.65,2.8,2.48,4.82,2.48h42.45c1.65,0,2.85-2.2,3.58-6.62c0.28-2.3,0.41-4.55,0.41-6.75c0-2.2-0.14-4.36-0.41-6.48
		C52.01,72.73,50.86,70.57,49.21,70.57z"/>
	<path class="st0" d="M89.87,26.6c-0.52,0-1.03,0.01-1.53,0.03c0.02-0.9-0.01-1.81-0.11-2.73l-0.18-1.59l-1.59-0.18
		c-0.74-0.08-1.49-0.12-2.24-0.12c-5.34,0-10.36,2.08-14.13,5.85c-3.01,3.01-4.93,6.82-5.59,10.91c-4.32,6.06-6.48,13.94-6.48,23.66
		c0,11.21,2.87,19.99,8.61,26.33c5.74,6.34,13.48,9.51,23.22,9.51c9.74,0,17.46-3.17,23.16-9.51c5.7-6.34,8.55-15.11,8.55-26.33
		c0-11.21-2.85-19.99-8.55-26.33C107.32,29.77,99.6,26.6,89.87,26.6z M86.31,26.75c-0.01,0.41-0.02,0.82-0.06,1.23
		c-0.07,0.69-0.17,1.38-0.32,2.05c-0.28,1.29-0.71,2.56-1.29,3.78c-0.86,1.83-2.04,3.54-3.55,5.04c-0.47,0.47-0.97,0.91-1.48,1.32
		c-0.17,0.13-0.34,0.25-0.51,0.38c-0.35,0.26-0.71,0.52-1.07,0.75c-0.21,0.13-0.42,0.25-0.64,0.38c-0.34,0.2-0.69,0.39-1.04,0.57
		c-0.23,0.11-0.46,0.22-0.69,0.32c-0.35,0.16-0.71,0.3-1.07,0.43c-0.24,0.09-0.47,0.17-0.71,0.25c-0.37,0.12-0.75,0.22-1.13,0.32
		c-0.23,0.06-0.46,0.12-0.69,0.17c-0.42,0.09-0.85,0.15-1.28,0.21c-0.19,0.03-0.38,0.06-0.56,0.08c-0.62,0.06-1.24,0.1-1.86,0.1
		c-0.67,0-1.33-0.04-1.99-0.11c-0.16-1.48-0.15-2.97,0.05-4.44c0.07-0.49,0.15-0.98,0.26-1.46c0.23-1.04,0.58-2.06,1-3.06
		c0.36-0.86,0.76-1.7,1.26-2.5c0.72-1.16,1.58-2.26,2.58-3.26c0.47-0.47,0.97-0.91,1.48-1.32c0.17-0.13,0.34-0.25,0.51-0.38
		c0.35-0.26,0.71-0.52,1.07-0.75c0.21-0.13,0.42-0.25,0.64-0.37c0.34-0.2,0.69-0.39,1.04-0.57c0.23-0.11,0.46-0.22,0.69-0.32
		c0.35-0.16,0.71-0.3,1.07-0.43c0.24-0.09,0.47-0.17,0.71-0.25c0.37-0.12,0.75-0.22,1.13-0.32c0.23-0.06,0.46-0.12,0.69-0.17
		c0.42-0.09,0.85-0.15,1.28-0.21c0.19-0.03,0.38-0.06,0.57-0.08c0.62-0.06,1.24-0.1,1.86-0.1c0.67,0,1.33,0.04,1.99,0.11
		C86.33,25,86.34,25.88,86.31,26.75z"/>
	<path class="st0" d="M160.78,26.6c-9.7,0-17.46,3.36-23.29,10.06c-5.84,6.71-8.75,15.51-8.75,26.4c0,10.89,2.96,19.48,8.89,25.77
		c5.93,6.3,13.12,9.44,21.57,9.44c8.45,0,15.11-1.52,19.99-4.55c0.46-0.55,0.69-1.68,0.69-3.38c0-1.7-0.44-4.91-1.31-9.65
		c-0.87-4.73-2-7.1-3.38-7.1c-2.94,1.75-6.62,2.62-11.03,2.62c-6.8,0-10.2-4.5-10.2-13.51c0-4.96,0.78-8.55,2.34-10.75
		c1.56-2.21,3.42-3.31,5.58-3.31c2.16,0,5.03,1.79,8.61,5.38c1.01,1.1,1.86,1.65,2.55,1.65c0.69,0,1.22-0.05,1.59-0.14
		c2.66-0.92,4.82-4.32,6.48-10.2c0.73-2.85,1.1-5.26,1.1-7.24c0-1.97-0.41-3.47-1.24-4.48C177.2,28.94,170.47,26.6,160.78,26.6z"/>
	<path class="st0" d="M274.42,0c-8.91,0-13.37,0.69-13.37,2.07v93.86c0,0.64,3.67,1.01,11.03,1.1c9.37,0,14.06-0.41,14.06-1.24V1.38
		C286.14,0.74,282.23,0.28,274.42,0z"/>
	<path class="st0" d="M327.97,26.6c-9.7,0-17.46,3.36-23.29,10.06c-5.84,6.71-8.75,15.51-8.75,26.4c0,10.89,2.96,19.48,8.89,25.77
		c5.93,6.3,13.12,9.44,21.57,9.44c8.45,0,15.11-1.52,19.99-4.55c0.46-0.55,0.69-1.68,0.69-3.38c0-1.7-0.44-4.91-1.31-9.65
		c-0.87-4.73-2-7.1-3.38-7.1c-2.94,1.75-6.62,2.62-11.03,2.62c-6.8,0-10.2-4.5-10.2-13.51c0-4.96,0.78-8.55,2.34-10.75
		c1.56-2.21,3.42-3.31,5.58-3.31c2.16,0,5.03,1.79,8.61,5.38c1.01,1.1,1.86,1.65,2.55,1.65c0.69,0,1.22-0.05,1.58-0.14
		c2.66-0.92,4.82-4.32,6.48-10.2c0.73-2.85,1.1-5.26,1.1-7.24c0-1.97-0.41-3.47-1.24-4.48C344.39,28.94,337.66,26.6,327.97,26.6z"/>
	<path class="st0" d="M409.36,36.11c-5.7-6.34-13.42-9.51-23.16-9.51c-3.84,0-7.36,0.5-10.58,1.49l-0.41-1.01
		c-0.34-0.82-0.68-1.64-1-2.47c-0.64-1.65-1.93-2.59-3.54-2.59h-0.01l-0.05,0c-1.58,0.02-2.84,0.95-3.46,2.56
		c-0.5,1.3-1.01,2.6-1.52,3.9c-0.83,2.11-2.28,3.57-4.43,4.46c-1.09,0.45-2.25,0.91-3.43,1.34c-0.94,0.35-2.88,1.07-3.04,3.49
		c-0.15,2.38,1.68,3.36,2.46,3.78l0.12,0.06l0.13,0.05c0.4,0.15,0.8,0.3,1.21,0.44c0.04,0.02,0.09,0.03,0.13,0.05
		c-2.93,5.52-4.41,12.28-4.41,20.3c0,11.21,2.87,19.99,8.61,26.33c5.74,6.34,13.48,9.51,23.22,9.51c9.74,0,17.46-3.17,23.16-9.51
		c5.7-6.34,8.55-15.11,8.55-26.33C417.9,51.23,415.05,42.45,409.36,36.11z M384.24,39.09c-0.12,0.14-0.27,0.25-0.43,0.35
		c-0.16,0.1-0.35,0.19-0.54,0.26c-1.17,0.45-2.33,0.92-3.51,1.35c-0.73,0.27-1.39,0.6-2.01,0.98c-0.89,0.56-1.65,1.24-2.3,2.03
		c-0.35,0.42-0.65,0.88-0.93,1.37c-0.16,0.28-0.31,0.56-0.44,0.86c-0.11,0.24-0.22,0.47-0.32,0.72c-0.16,0.41-0.32,0.81-0.48,1.22
		c-0.29,0.72-0.57,1.45-0.84,2.18c-0.04,0.11-0.08,0.21-0.13,0.31c-0.02,0.04-0.04,0.09-0.06,0.13c-0.03,0.05-0.05,0.11-0.08,0.16
		c-0.02,0.04-0.05,0.08-0.08,0.12c-0.03,0.05-0.06,0.1-0.09,0.14c-0.03,0.04-0.06,0.07-0.09,0.1c-0.04,0.04-0.07,0.09-0.11,0.12
		c-0.03,0.03-0.07,0.06-0.1,0.08c-0.04,0.03-0.08,0.07-0.12,0.1c-0.04,0.03-0.08,0.04-0.12,0.06c-0.05,0.03-0.09,0.05-0.14,0.07
		c-0.04,0.02-0.09,0.03-0.14,0.04c-0.05,0.02-0.11,0.04-0.17,0.05c-0.05,0.01-0.11,0.01-0.16,0.01c-0.07,0.01-0.13,0.02-0.21,0.02
		c-0.45-0.01-0.78-0.15-1.05-0.38c-0.09-0.08-0.17-0.17-0.24-0.26c-0.18-0.23-0.31-0.52-0.42-0.83c-0.06-0.17-0.13-0.34-0.2-0.52
		c-0.4-1.07-0.83-2.13-1.25-3.19c-0.07-0.18-0.16-0.35-0.24-0.52c-0.12-0.26-0.24-0.51-0.38-0.75c-0.27-0.49-0.56-0.95-0.9-1.37
		c-1.03-1.29-2.37-2.27-4.01-2.93c-0.72-0.29-1.44-0.56-2.17-0.83c-0.08-0.03-0.16-0.06-0.25-0.09c-0.47-0.17-0.94-0.34-1.4-0.51
		c-0.77-0.41-1.48-0.84-1.41-1.89c0.02-0.28,0.08-0.5,0.18-0.69c0.1-0.19,0.23-0.34,0.39-0.47c0.16-0.13,0.34-0.23,0.54-0.32
		s0.41-0.17,0.62-0.25c1.17-0.44,2.34-0.89,3.5-1.37c1.63-0.68,2.98-1.65,4.01-2.93c0.21-0.26,0.4-0.52,0.58-0.81
		c0.18-0.28,0.35-0.57,0.51-0.88c0.16-0.31,0.3-0.62,0.43-0.95c0.51-1.3,1.02-2.6,1.53-3.91c0.15-0.38,0.34-0.69,0.61-0.92
		c0.26-0.22,0.6-0.36,1.02-0.36c0.14,0,0.25,0.03,0.36,0.05c0.08,0.01,0.17,0.01,0.24,0.04c0.11,0.04,0.2,0.1,0.29,0.16
		c0.06,0.04,0.13,0.06,0.18,0.1c0.1,0.08,0.17,0.18,0.25,0.29c0.04,0.05,0.08,0.08,0.11,0.13c0.09,0.15,0.17,0.31,0.25,0.49
		c0.01,0.02,0.02,0.03,0.02,0.05c0.33,0.84,0.67,1.68,1.02,2.51c0.12,0.3,0.24,0.6,0.36,0.9c0.02,0.05,0.04,0.11,0.07,0.16
		c0.15,0.45,0.33,0.87,0.53,1.27c0.2,0.4,0.43,0.78,0.67,1.14c0.16,0.24,0.34,0.47,0.52,0.68c0.33,0.39,0.68,0.76,1.07,1.09
		c0.51,0.43,1.07,0.81,1.68,1.14c0.31,0.17,0.62,0.32,0.96,0.46c0.66,0.28,1.33,0.55,2,0.8s1.34,0.51,2.01,0.77
		c0.15,0.06,0.3,0.13,0.44,0.2c0.14,0.07,0.26,0.16,0.37,0.25c0.17,0.14,0.31,0.32,0.41,0.51c0.12,0.23,0.18,0.49,0.18,0.81
		C384.63,38.48,384.48,38.82,384.24,39.09z"/>
</g>
</svg>
