<?xml version="1.0" encoding="utf-8"?>
<!-- Generator: Adobe Illustrator 28.0.0, SVG Export Plug-In . SVG Version: 6.00 Build 0)  -->
<svg version="1.1" id="Calque_1" xmlns="http://www.w3.org/2000/svg" xmlns:xlink="http://www.w3.org/1999/xlink" x="0px" y="0px"
	 viewBox="0 0 417.9 98.27" style="enable-background:new 0 0 417.9 98.27;" xml:space="preserve">
<style type="text/css">
	.st0{fill:#1A4E24;}
	.st1{fill:#FBBA00;}
	.st2{fill:#E73A39;}
	.st3{fill:#1F5026;}
</style>
<g>
	<path class="st0" d="M0,88.76V3.03C0,1.1,4.66,0.14,13.99,0.14c9.33,0,13.99,0.97,13.99,2.89v67.54h21.23
		c1.65,0,2.8,2.16,3.45,6.48c0.28,2.12,0.41,4.27,0.41,6.48c0,2.21-0.14,4.46-0.41,6.75c-0.74,4.41-1.93,6.62-3.58,6.62H6.62
		c-2.02,0-3.63-0.83-4.82-2.48C0.6,92.76,0,90.88,0,88.76z"/>
	<path class="st1" d="M66.64,88.76c-5.74-6.34-8.61-15.11-8.61-26.33c0-11.21,2.87-19.99,8.61-26.33
		c5.74-6.34,13.48-9.51,23.22-9.51c9.74,0,17.46,3.17,23.16,9.51c5.7,6.34,8.55,15.12,8.55,26.33c0,11.21-2.85,19.99-8.55,26.33
		c-5.7,6.34-13.42,9.51-23.16,9.51C80.13,98.27,72.38,95.1,66.64,88.76z"/>
	<path class="st0" d="M153.96,62.71c0,9.01,3.4,13.51,10.2,13.51c4.41,0,8.08-0.87,11.03-2.62c1.38,0,2.5,2.37,3.38,7.1
		c0.87,4.73,1.31,7.95,1.31,9.65c0,1.7-0.23,2.83-0.69,3.38c-4.87,3.03-11.53,4.55-19.99,4.55c-8.46,0-15.64-3.15-21.57-9.44
		c-5.93-6.29-8.89-14.89-8.89-25.77c0-10.89,2.92-19.69,8.75-26.4c5.83-6.71,13.6-10.06,23.29-10.06c9.69,0,16.42,2.34,20.19,7.03
		c0.83,1.01,1.24,2.5,1.24,4.48c0,1.98-0.37,4.39-1.1,7.24c-1.65,5.88-3.81,9.28-6.48,10.2c-0.37,0.09-0.9,0.14-1.59,0.14
		c-0.69,0-1.54-0.55-2.55-1.65c-3.58-3.58-6.46-5.38-8.61-5.38c-2.16,0-4.02,1.1-5.58,3.31C154.74,54.17,153.96,57.75,153.96,62.71z
		"/>
	<path class="st0" d="M198.48,46.86c-2.57-4.59-3.86-8.34-3.86-11.23c0-2.9,0.78-4.76,2.34-5.58c5.24-2.3,12.43-3.45,21.57-3.45
		c9.14,0,15.6,2.14,19.37,6.41c3.77,4.27,5.65,10.59,5.65,18.95v21.78h4.69c1.56,0,2.78,0.92,3.65,2.76
		c0.87,1.84,1.31,4.37,1.31,7.58c0,3.22-0.81,6.39-2.41,9.51c-1.61,3.13-3.79,4.69-6.55,4.69c-4.96,0-8.96-1.33-11.99-4
		c-1.38-1.1-2.44-2.43-3.17-4c-4.23,5.33-10.8,7.99-19.71,7.99c-6.71,0-12.36-2.39-16.95-7.17c-4.6-4.78-6.89-10.43-6.89-16.95
		c0-14.98,8.96-22.47,26.88-22.47h7.58v-1.38c0-2.39-0.39-3.93-1.17-4.62c-0.78-0.69-2.6-1.03-5.44-1.03
		C209.87,44.66,204.91,45.39,198.48,46.86z M209.5,72.22c0,2.02,0.55,3.56,1.65,4.62c1.1,1.06,2.5,1.59,4.2,1.59
		c1.7,0,3.24-0.69,4.62-2.07V65.75h-3.86C211.71,65.75,209.5,67.91,209.5,72.22z"/>
	<path class="st0" d="M286.14,95.79c0,0.83-4.69,1.24-14.06,1.24c-7.35-0.09-11.03-0.46-11.03-1.1V2.07c0-1.38,4.46-2.07,13.37-2.07
		c7.81,0.28,11.72,0.74,11.72,1.38V95.79z"/>
	<path class="st0" d="M321.14,62.71c0,9.01,3.4,13.51,10.2,13.51c4.41,0,8.08-0.87,11.03-2.62c1.38,0,2.5,2.37,3.38,7.1
		c0.87,4.73,1.31,7.95,1.31,9.65c0,1.7-0.23,2.83-0.69,3.38c-4.87,3.03-11.53,4.55-19.99,4.55c-8.46,0-15.64-3.15-21.57-9.44
		c-5.93-6.29-8.89-14.89-8.89-25.77c0-10.89,2.92-19.69,8.75-26.4c5.83-6.71,13.6-10.06,23.29-10.06c9.69,0,16.42,2.34,20.19,7.03
		c0.83,1.01,1.24,2.5,1.24,4.48c0,1.98-0.37,4.39-1.1,7.24c-1.65,5.88-3.81,9.28-6.48,10.2c-0.37,0.09-0.9,0.14-1.58,0.14
		c-0.69,0-1.54-0.55-2.55-1.65c-3.58-3.58-6.46-5.38-8.61-5.38c-2.16,0-4.02,1.1-5.58,3.31C321.92,54.17,321.14,57.75,321.14,62.71z
		"/>
	<path class="st2" d="M362.98,88.76c-5.74-6.34-8.61-15.11-8.61-26.33c0-11.21,2.87-19.99,8.61-26.33
		c5.74-6.34,13.48-9.51,23.22-9.51c9.74,0,17.46,3.17,23.16,9.51c5.7,6.34,8.55,15.12,8.55,26.33c0,11.21-2.85,19.99-8.55,26.33
		c-5.7,6.34-13.42,9.51-23.16,9.51C376.46,98.27,368.72,95.1,362.98,88.76z"/>
	<path class="st3" d="M373.79,28.9c0.94,2.75,2.79,4.65,5.43,5.78c1.32,0.56,2.67,1.06,4.01,1.57c0.83,0.32,1.43,0.83,1.4,1.78
		c-0.02,0.89-0.6,1.38-1.38,1.68c-1.17,0.45-2.33,0.92-3.51,1.35c-2.9,1.09-4.89,3.08-6,5.97c-0.44,1.13-0.9,2.26-1.32,3.4
		c-0.32,0.86-0.78,1.54-1.79,1.53c-0.95-0.01-1.41-0.64-1.71-1.47c-0.46-1.24-0.96-2.47-1.45-3.7c-1.05-2.64-2.9-4.51-5.53-5.58
		c-1.26-0.51-2.55-0.96-3.82-1.43c-0.77-0.41-1.48-0.84-1.41-1.89c0.07-1.11,0.88-1.42,1.74-1.74c1.17-0.44,2.34-0.89,3.5-1.37
		c2.62-1.08,4.48-2.93,5.52-5.57c0.51-1.3,1.02-2.6,1.53-3.91c0.29-0.75,0.78-1.27,1.63-1.28c0.89-0.01,1.4,0.51,1.71,1.31
		C372.81,26.53,373.31,27.71,373.79,28.9z"/>
	<path class="st0" d="M71.51,29.28c-4.02,4.02-5.73,9.48-5.15,14.73c5.25,0.59,10.7-1.12,14.73-5.15s5.73-9.48,5.15-14.73
		C80.99,23.54,75.53,25.25,71.51,29.28z"/>
</g>
</svg>
