<?xml version="1.0" encoding="utf-8"?>
<!-- Generator: Adobe Illustrator 28.0.0, SVG Export Plug-In . SVG Version: 6.00 Build 0)  -->
<svg version="1.1" id="Calque_1" xmlns="http://www.w3.org/2000/svg" xmlns:xlink="http://www.w3.org/1999/xlink" x="0px" y="0px"
	 viewBox="0 0 149.44 149.44" style="enable-background:new 0 0 149.44 149.44;" xml:space="preserve">
<style type="text/css">
	.st0{fill:#D9D9D9;}
	.st1{fill:#FFFFFF;}
</style>
<circle class="st0" cx="74.72" cy="74.72" r="74.72"/>
<g>
	<g>
		<path class="st1" d="M54.18,64.56c1.23-0.22,2.82-0.36,4.06-0.36c1.26,0,3.29,0.22,4.55,1.56c0.82,0.88,1.18,2.3,1.18,3.26
			c0,2.8-1.37,4.8-2.6,5.78c-1.32,1.04-3.21,1.53-4.77,1.53c-0.22,0-0.47,0-0.71,0l-1.23,6.41H50.7L54.18,64.56z M56.54,73.03
			c0.16,0,0.33,0,0.47,0c2.36,0,2.9-2.33,2.9-3.73c0-1.07-0.52-1.81-1.59-1.81c-0.3,0-0.58,0-0.74,0.06L56.54,73.03z"/>
		<path class="st1" d="M63.23,82.76l2.58-13.48h4.06l-2.58,13.48H63.23z M66.51,65.85c0-1.1,0.77-2.41,2.17-2.41
			c1.29,0,1.86,0.96,1.86,2c0,1.56-1.07,2.44-2.22,2.44C67.03,67.88,66.51,66.98,66.51,65.85z"/>
		<path class="st1" d="M77.17,82.57c-0.36,0.14-1.29,0.36-2.49,0.36c-3.1,0-4.44-2.44-4.44-4.85c0-5.21,3.32-8.96,7.45-8.96
			c0.93,0,1.51,0.11,1.86,0.25l-0.99,3.29c-0.38-0.08-0.71-0.14-0.99-0.14c-1.67,0-3.29,2.14-3.29,4.96c0,1.34,0.63,2.17,1.56,2.17
			c0.69,0,1.26-0.19,1.67-0.27L77.17,82.57z"/>
		<path class="st1" d="M85.89,65.63l-0.69,3.64h2.52L87.2,72.1h-2.55l-1.07,5.62c-0.06,0.36-0.08,0.69-0.08,0.9
			c0,0.9,0.49,1.18,1.1,1.18c0.22,0,0.6,0,0.99-0.05l-0.52,3.01c-0.69,0.19-1.59,0.22-2.33,0.22c-2.33,0-3.43-1.29-3.43-3.29
			c0-0.66,0.11-1.45,0.22-1.97l1.07-5.62h-1.53l0.52-2.82h1.56l0.52-2.69L85.89,65.63z"/>
		<path class="st1" d="M98.27,73.94c0,4.58-2.49,9.04-6.58,9.04c-3.78,0-4.49-2.88-4.49-4.69c0-4.93,2.74-9.24,6.85-9.24
			C97.75,69.06,98.27,72.02,98.27,73.94z M91.17,78.16c0,0.74,0.03,1.78,0.93,1.78c1.32,0,2.19-4.08,2.19-6.55
			c0-0.69-0.22-1.29-0.9-1.29C92.22,72.1,91.15,75.96,91.17,78.16z"/>
	</g>
</g>
</svg>
